<?xml version="1.0" encoding="utf-8"?>
<!-- Generator: Adobe Illustrator 25.4.6, SVG Export Plug-In . SVG Version: 6.00 Build 0)  -->
<svg version="1.1" id="Layer_1" xmlns="http://www.w3.org/2000/svg" xmlns:xlink="http://www.w3.org/1999/xlink" x="0px" y="0px"
	 viewBox="0 0 30 36" style="enable-background:new 0 0 30 36;" xml:space="preserve">
<style type="text/css">
	.st0{fill:#535353;}
</style>
<g>
	<path class="st0" d="M10.6,33.4c-0.4,1,0.2,2.2,1.2,2.5C12,36,12.2,36,12.4,36c0.8,0,1.6-0.5,1.9-1.3l2-5.6l-2.7-4.2L10.6,33.4z"/>
	<path class="st0" d="M28.6,14l-3-0.6c-0.4-0.1-0.8-0.3-1.1-0.7c-3-3.8-3.6-4-4.4-4.1l-2.8-0.2c-0.4,0-0.9,0-4.9,1.5
		c-1,0.4-1.9,1.1-2.5,1.9l-2.2,3.2c-0.2,0.2-0.2,0.4-0.3,0.6c-0.6-0.1-1.3,0.2-1.7,0.8l-0.4,0.6l-1.3-0.8c-0.4-0.3-1-0.1-1.3,0.3
		l-2.7,4.5c-0.3,0.4-0.1,1,0.3,1.3l7,4.2c0.4,0.3,1,0.1,1.3-0.3l2.7-4.5c0.3-0.4,0.1-1-0.3-1.3l-1.3-0.8l0.4-0.6
		c0.3-0.5,0.3-1.2,0-1.7c0.2-0.1,0.3-0.3,0.5-0.4l2.2-3.2c0.2-0.3,0.5-0.5,0.9-0.7c0.3-0.1,0.6-0.2,0.9-0.3l-1.3,4.5
		c-0.5,1.5-0.2,3.2,0.6,4.5L22,35.1c0.4,0.6,1,0.9,1.7,0.9c0.4,0,0.7-0.1,1.1-0.3c0.9-0.6,1.2-1.8,0.6-2.7l-6.6-10.6l2.7-8
		c0.1,0.2,0.2,0.3,0.3,0.4c0.8,1,1.9,1.6,3.1,1.9l3,0.6c0.9,0.2,1.9-0.4,2-1.3C30.2,15.2,29.5,14.3,28.6,14L28.6,14z M9,18.5
		l-0.4,0.6l-2-1.2L7,17.3c0.1-0.2,0.3-0.2,0.5-0.1l1.5,0.9C9,18.1,9.1,18.4,9,18.5L9,18.5z"/>
	<path class="st0" d="M19.7,0c2.1,0.2,3.6,2.1,3.4,4.2c-0.2,2.1-2.1,3.6-4.2,3.4c-2.1-0.2-3.6-2.1-3.4-4.2C15.7,1.3,17.6-0.2,19.7,0
		"/>
</g>
</svg>
