<svg width="115" height="39" viewBox="0 0 115 39" fill="none" xmlns="http://www.w3.org/2000/svg">
<path d="M21.7689 19.3007C21.7796 18.466 22.0013 17.6476 22.4134 16.9217C22.8254 16.1957 23.4143 15.5858 24.1254 15.1486C23.6737 14.5035 23.0777 13.9725 22.3849 13.598C21.6921 13.2234 20.9215 13.0156 20.1343 12.9909C18.455 12.8147 16.8271 13.9958 15.9714 13.9958C15.0991 13.9958 13.7816 13.0084 12.3629 13.0376C11.4452 13.0673 10.5509 13.3341 9.76697 13.8122C8.98309 14.2902 8.33642 14.9632 7.88995 15.7655C5.95595 19.1139 7.39854 24.035 9.25115 26.7416C10.178 28.0669 11.2613 29.5474 12.6788 29.4949C14.0658 29.4374 14.5839 28.6104 16.2582 28.6104C17.9169 28.6104 18.403 29.4949 19.8492 29.4615C21.3376 29.4373 22.2753 28.1303 23.1697 26.7924C23.8357 25.848 24.3481 24.8043 24.6881 23.6999C23.8234 23.3341 23.0855 22.7219 22.5664 21.9396C22.0472 21.1574 21.7699 20.2395 21.7689 19.3007V19.3007Z" fill="white"/>
<path d="M19.0372 11.2109C19.8487 10.2367 20.2485 8.98451 20.1517 7.72028C18.9119 7.8505 17.7666 8.44306 16.9441 9.37989C16.542 9.83755 16.234 10.37 16.0378 10.9468C15.8415 11.5235 15.7609 12.1333 15.8004 12.7413C16.4206 12.7477 17.0341 12.6132 17.5947 12.3482C18.1554 12.0831 18.6486 11.6942 19.0372 11.2109Z" fill="white"/>
<path d="M39.3022 26.1397H34.5688L33.4321 29.4961H31.4272L35.9106 17.0781H37.9936L42.477 29.4961H40.438L39.3022 26.1397ZM35.0591 24.5908H38.8111L36.9615 19.1436H36.9097L35.0591 24.5908Z" fill="white"/>
<path d="M52.1597 24.9697C52.1597 27.7832 50.6538 29.5908 48.3814 29.5908C47.8057 29.6209 47.2332 29.4883 46.7294 29.2082C46.2256 28.9281 45.8109 28.5117 45.5327 28.0068H45.4897V32.4912H43.6313V20.4424H45.4302V21.9483H45.4644C45.7553 21.4458 46.1771 21.0316 46.6847 20.7498C47.1923 20.4679 47.7669 20.3289 48.3472 20.3477C50.645 20.3477 52.1597 22.1641 52.1597 24.9697ZM50.2495 24.9697C50.2495 23.1367 49.3023 21.9317 47.857 21.9317C46.437 21.9317 45.482 23.1621 45.482 24.9697C45.482 26.794 46.437 28.0156 47.857 28.0156C49.3023 28.0156 50.2495 26.8194 50.2495 24.9697Z" fill="white"/>
<path d="M62.1245 24.9697C62.1245 27.7832 60.6187 29.5908 58.3462 29.5908C57.7706 29.6209 57.1981 29.4883 56.6943 29.2082C56.1905 28.9281 55.7758 28.5117 55.4976 28.0068H55.4546V32.4912H53.5962V20.4424H55.395V21.9482H55.4292C55.7201 21.4458 56.1419 21.0316 56.6495 20.7497C57.1571 20.4679 57.7317 20.3289 58.312 20.3477C60.6099 20.3477 62.1245 22.1641 62.1245 24.9697ZM60.2144 24.9697C60.2144 23.1367 59.2671 21.9316 57.8218 21.9316C56.4019 21.9316 55.4468 23.1621 55.4468 24.9697C55.4468 26.794 56.4019 28.0156 57.8218 28.0156C59.2671 28.0156 60.2144 26.8193 60.2144 24.9697H60.2144Z" fill="white"/>
<path d="M68.7105 26.0361C68.8482 27.2676 70.0445 28.0761 71.6792 28.0761C73.2456 28.0761 74.3726 27.2675 74.3726 26.1572C74.3726 25.1933 73.6929 24.6162 72.0835 24.2207L70.4742 23.833C68.1939 23.2822 67.1353 22.2158 67.1353 20.4853C67.1353 18.3427 69.0025 16.871 71.6538 16.871C74.2778 16.871 76.0767 18.3427 76.1372 20.4853H74.2612C74.1489 19.246 73.1245 18.498 71.6274 18.498C70.1304 18.498 69.106 19.2548 69.106 20.3564C69.106 21.2343 69.7603 21.7509 71.3608 22.1464L72.729 22.4823C75.2769 23.0849 76.3355 24.1083 76.3355 25.9247C76.3355 28.248 74.4849 29.703 71.5415 29.703C68.7876 29.703 66.9282 28.2821 66.8081 26.036L68.7105 26.0361Z" fill="white"/>
<path d="M80.3462 18.2998V20.4424H82.0679V21.9141H80.3462V26.9053C80.3462 27.6807 80.6909 28.042 81.4477 28.042C81.6521 28.0384 81.8562 28.0241 82.0591 27.999V29.4619C81.7188 29.5255 81.3729 29.5543 81.0268 29.5478C79.1938 29.5478 78.479 28.8593 78.479 27.1035V21.9141H77.1626V20.4424H78.479V18.2998H80.3462Z" fill="white"/>
<path d="M83.0649 24.9697C83.0649 22.1211 84.7427 20.3311 87.3589 20.3311C89.9839 20.3311 91.6538 22.1211 91.6538 24.9697C91.6538 27.8262 89.9927 29.6084 87.3589 29.6084C84.726 29.6084 83.0649 27.8262 83.0649 24.9697ZM89.7602 24.9697C89.7602 23.0156 88.8647 21.8623 87.3589 21.8623C85.853 21.8623 84.9585 23.0244 84.9585 24.9697C84.9585 26.9316 85.853 28.0762 87.3589 28.0762C88.8647 28.0762 89.7602 26.9316 89.7602 24.9697H89.7602Z" fill="white"/>
<path d="M93.186 20.4424H94.9585V21.9834H95.0015C95.1214 21.5021 95.4034 21.0768 95.8 20.7789C96.1966 20.481 96.6836 20.3287 97.1792 20.3476C97.3934 20.3469 97.607 20.3702 97.816 20.417V22.1553C97.5456 22.0726 97.2635 22.0347 96.981 22.043C96.711 22.032 96.4418 22.0796 96.192 22.1825C95.9421 22.2854 95.7175 22.4411 95.5335 22.639C95.3496 22.8369 95.2106 23.0723 95.1262 23.3289C95.0417 23.5856 95.0139 23.8575 95.0444 24.126V29.4961H93.186L93.186 20.4424Z" fill="white"/>
<path d="M106.384 26.8369C106.134 28.4805 104.534 29.6084 102.486 29.6084C99.852 29.6084 98.2173 27.8437 98.2173 25.0127C98.2173 22.1729 99.8608 20.3311 102.408 20.3311C104.913 20.3311 106.488 22.0518 106.488 24.7969V25.4336H100.093V25.5459C100.064 25.8791 100.105 26.2148 100.216 26.5306C100.326 26.8464 100.502 27.1352 100.732 27.3778C100.963 27.6203 101.242 27.8111 101.552 27.9374C101.861 28.0637 102.195 28.1226 102.529 28.1103C102.968 28.1515 103.409 28.0498 103.785 27.8203C104.162 27.5909 104.455 27.246 104.62 26.8369L106.384 26.8369ZM100.102 24.1348H104.628C104.645 23.8352 104.6 23.5354 104.495 23.2541C104.39 22.9729 104.229 22.7164 104.02 22.5006C103.812 22.2849 103.561 22.1145 103.283 22.0003C103.006 21.8861 102.708 21.8305 102.408 21.8369C102.105 21.8351 101.805 21.8933 101.525 22.008C101.245 22.1227 100.99 22.2918 100.776 22.5054C100.562 22.7191 100.392 22.973 100.276 23.2527C100.16 23.5323 100.101 23.8321 100.102 24.1348V24.1348Z" fill="white"/>
<path d="M34.8262 7.73101C35.2158 7.70305 35.6067 7.76191 35.9709 7.90335C36.335 8.04478 36.6632 8.26526 36.9317 8.54889C37.2003 8.83251 37.4026 9.17221 37.524 9.54348C37.6454 9.91475 37.6829 10.3083 37.6338 10.6959C37.6338 12.6021 36.6035 13.6979 34.8262 13.6979H32.6709V7.73101H34.8262ZM33.5976 12.854H34.7226C35.0011 12.8707 35.2797 12.825 35.5382 12.7204C35.7967 12.6158 36.0287 12.4548 36.2172 12.2493C36.4057 12.0437 36.546 11.7987 36.6278 11.5321C36.7097 11.2655 36.7311 10.9839 36.6904 10.708C36.7281 10.4332 36.7046 10.1534 36.6215 9.88875C36.5383 9.62408 36.3977 9.38108 36.2096 9.17715C36.0216 8.97322 35.7907 8.81341 35.5337 8.70917C35.2766 8.60494 34.9996 8.55885 34.7226 8.57422H33.5976V12.854Z" fill="white"/>
<path d="M38.6807 11.4443C38.6524 11.1484 38.6862 10.8499 38.7801 10.5678C38.8739 10.2857 39.0257 10.0264 39.2256 9.8064C39.4256 9.58642 39.6693 9.41065 39.9411 9.29038C40.213 9.1701 40.507 9.10797 40.8042 9.10797C41.1015 9.10797 41.3955 9.1701 41.6673 9.29038C41.9392 9.41065 42.1829 9.58642 42.3828 9.8064C42.5828 10.0264 42.7345 10.2857 42.8284 10.5678C42.9222 10.8499 42.9561 11.1484 42.9278 11.4443C42.9566 11.7406 42.9232 12.0396 42.8296 12.3221C42.736 12.6046 42.5843 12.8644 42.3843 13.0848C42.1843 13.3052 41.9404 13.4814 41.6683 13.6019C41.3962 13.7225 41.1019 13.7847 40.8042 13.7847C40.5066 13.7847 40.2123 13.7225 39.9402 13.6019C39.668 13.4814 39.4241 13.3052 39.2241 13.0848C39.0242 12.8644 38.8725 12.6046 38.7789 12.3221C38.6853 12.0396 38.6519 11.7406 38.6807 11.4443V11.4443ZM42.0137 11.4443C42.0137 10.4683 41.5752 9.89748 40.8057 9.89748C40.0332 9.89748 39.5987 10.4683 39.5987 11.4444C39.5987 12.4282 40.0333 12.9946 40.8057 12.9946C41.5752 12.9946 42.0137 12.4243 42.0137 11.4443H42.0137Z" fill="white"/>
<path d="M48.5732 13.6978H47.6514L46.7207 10.3813H46.6504L45.7236 13.6978H44.8105L43.5693 9.19482H44.4707L45.2773 12.6308H45.3438L46.2695 9.19482H47.1221L48.0479 12.6308H48.1182L48.9209 9.19482H49.8096L48.5732 13.6978Z" fill="white"/>
<path d="M50.8535 9.19484H51.709V9.91017H51.7754C51.888 9.65325 52.0781 9.43788 52.3189 9.29407C52.5598 9.15026 52.8395 9.08519 53.1191 9.10792C53.3382 9.09144 53.5582 9.12448 53.7628 9.20458C53.9674 9.28467 54.1514 9.40978 54.3011 9.57062C54.4508 9.73146 54.5623 9.92392 54.6275 10.1337C54.6927 10.3436 54.7099 10.5654 54.6777 10.7827V13.6977H53.7891V11.0059C53.7891 10.2822 53.4746 9.92238 52.8174 9.92238C52.6686 9.91545 52.5201 9.94077 52.3821 9.9966C52.244 10.0524 52.1197 10.1375 52.0175 10.2458C51.9154 10.3542 51.8379 10.4834 51.7904 10.6245C51.7429 10.7657 51.7264 10.9154 51.7422 11.0635V13.6978H50.8535L50.8535 9.19484Z" fill="white"/>
<path d="M56.0938 7.43701H56.9824V13.6978H56.0938V7.43701Z" fill="white"/>
<path d="M58.2178 11.4444C58.1895 11.1484 58.2234 10.8498 58.3172 10.5678C58.4111 10.2857 58.5629 10.0263 58.7628 9.80634C58.9628 9.58635 59.2065 9.41058 59.4784 9.2903C59.7503 9.17003 60.0443 9.10789 60.3416 9.10789C60.6389 9.10789 60.9329 9.17003 61.2047 9.2903C61.4766 9.41058 61.7203 9.58635 61.9203 9.80634C62.1203 10.0263 62.272 10.2857 62.3659 10.5678C62.4598 10.8498 62.4936 11.1484 62.4653 11.4444C62.4942 11.7406 62.4607 12.0396 62.3671 12.3221C62.2734 12.6046 62.1217 12.8644 61.9217 13.0848C61.7217 13.3053 61.4778 13.4814 61.2057 13.6019C60.9335 13.7224 60.6392 13.7847 60.3416 13.7847C60.0439 13.7847 59.7496 13.7224 59.4775 13.6019C59.2053 13.4814 58.9614 13.3053 58.7614 13.0848C58.5614 12.8644 58.4097 12.6046 58.3161 12.3221C58.2225 12.0396 58.189 11.7406 58.2178 11.4444V11.4444ZM61.5508 11.4444C61.5508 10.4683 61.1123 9.89749 60.3428 9.89749C59.5703 9.89749 59.1358 10.4683 59.1358 11.4444C59.1358 12.4283 59.5704 12.9947 60.3428 12.9947C61.1123 12.9946 61.5508 12.4243 61.5508 11.4444H61.5508Z" fill="white"/>
<path d="M63.4009 12.4243C63.4009 11.6138 64.0044 11.1465 65.0757 11.0801L66.2954 11.0098V10.6211C66.2954 10.1455 65.981 9.87697 65.3735 9.87697C64.8774 9.87697 64.5337 10.0591 64.4351 10.3775H63.5747C63.6655 9.60402 64.3931 9.10793 65.4146 9.10793C66.5435 9.10793 67.1802 9.66993 67.1802 10.6211V13.6978H66.3247V13.065H66.2544C66.1117 13.2919 65.9113 13.477 65.6737 13.6012C65.436 13.7254 65.1697 13.7843 64.9019 13.772C64.7128 13.7916 64.5218 13.7715 64.341 13.7128C64.1602 13.6541 63.9938 13.5581 63.8524 13.4312C63.711 13.3042 63.5977 13.149 63.52 12.9756C63.4422 12.8022 63.4016 12.6144 63.4009 12.4243V12.4243ZM66.2954 12.0396V11.6631L65.1958 11.7334C64.5757 11.7749 64.2944 11.9858 64.2944 12.3828C64.2944 12.7881 64.646 13.0239 65.1294 13.0239C65.2711 13.0383 65.4142 13.024 65.5502 12.9819C65.6862 12.9398 65.8123 12.8708 65.9211 12.7789C66.0299 12.6871 66.1191 12.5743 66.1834 12.4473C66.2477 12.3203 66.2858 12.1816 66.2954 12.0396V12.0396Z" fill="white"/>
<path d="M68.3481 11.4444C68.3481 10.0215 69.0796 9.12013 70.2173 9.12013C70.4987 9.10716 70.778 9.17457 71.0225 9.31446C71.267 9.45436 71.4667 9.66096 71.5981 9.91013H71.6646V7.43701H72.5532V13.6978H71.7017V12.9863H71.6314C71.4897 13.2338 71.2831 13.4378 71.0339 13.5763C70.7846 13.7148 70.5022 13.7825 70.2173 13.772C69.0718 13.772 68.3481 12.8706 68.3481 11.4444ZM69.2661 11.4444C69.2661 12.3994 69.7163 12.9741 70.4693 12.9741C71.2183 12.9741 71.6812 12.3911 71.6812 11.4483C71.6812 10.5098 71.2134 9.91847 70.4693 9.91847C69.7212 9.91847 69.2661 10.4971 69.2661 11.4444H69.2661Z" fill="white"/>
<path d="M76.23 11.4443C76.2017 11.1484 76.2356 10.8499 76.3294 10.5678C76.4232 10.2857 76.575 10.0264 76.7749 9.8064C76.9749 9.58642 77.2186 9.41065 77.4904 9.29038C77.7623 9.1701 78.0563 9.10797 78.3536 9.10797C78.6508 9.10797 78.9448 9.1701 79.2167 9.29038C79.4885 9.41065 79.7322 9.58642 79.9322 9.8064C80.1321 10.0264 80.2839 10.2857 80.3777 10.5678C80.4715 10.8499 80.5054 11.1484 80.4771 11.4443C80.5059 11.7406 80.4725 12.0396 80.3789 12.3221C80.2853 12.6046 80.1336 12.8644 79.9336 13.0848C79.7336 13.3052 79.4897 13.4814 79.2176 13.6019C78.9455 13.7225 78.6512 13.7847 78.3536 13.7847C78.0559 13.7847 77.7616 13.7225 77.4895 13.6019C77.2173 13.4814 76.9735 13.3052 76.7735 13.0848C76.5735 12.8644 76.4218 12.6046 76.3282 12.3221C76.2346 12.0396 76.2012 11.7406 76.23 11.4443V11.4443ZM79.563 11.4443C79.563 10.4683 79.1245 9.89748 78.355 9.89748C77.5826 9.89748 77.148 10.4683 77.148 11.4444C77.148 12.4282 77.5826 12.9946 78.355 12.9946C79.1245 12.9946 79.563 12.4243 79.563 11.4443Z" fill="white"/>
<path d="M81.6694 9.19484H82.5249V9.91017H82.5913C82.704 9.65325 82.894 9.43788 83.1348 9.29407C83.3757 9.15026 83.6555 9.08519 83.9351 9.10792C84.1542 9.09144 84.3742 9.12448 84.5788 9.20458C84.7834 9.28467 84.9673 9.40978 85.117 9.57062C85.2667 9.73146 85.3783 9.92392 85.4435 10.1337C85.5087 10.3436 85.5258 10.5654 85.4937 10.7827V13.6977H84.605V11.0059C84.605 10.2822 84.2905 9.92238 83.6333 9.92238C83.4846 9.91545 83.336 9.94077 83.198 9.9966C83.0599 10.0524 82.9356 10.1375 82.8335 10.2458C82.7313 10.3542 82.6539 10.4834 82.6063 10.6245C82.5588 10.7657 82.5423 10.9154 82.5581 11.0635V13.6978H81.6694V9.19484Z" fill="white"/>
<path d="M90.5151 8.07375V9.21535H91.4907V9.96389H90.5151V12.2793C90.5151 12.751 90.7095 12.9575 91.1519 12.9575C91.2651 12.9572 91.3783 12.9503 91.4907 12.937V13.6773C91.3311 13.7058 91.1694 13.721 91.0073 13.7227C90.019 13.7227 89.6255 13.375 89.6255 12.5068V9.96385H88.9106V9.21531H89.6255V8.07375H90.5151Z" fill="white"/>
<path d="M92.7046 7.43701H93.5854V9.91846H93.6558C93.7739 9.65914 93.9691 9.44255 94.2148 9.2982C94.4605 9.15386 94.7447 9.08877 95.0288 9.11182C95.2467 9.09996 95.4646 9.13635 95.6669 9.21839C95.8692 9.30043 96.0508 9.42611 96.199 9.58644C96.3471 9.74678 96.458 9.93783 96.5238 10.146C96.5896 10.3541 96.6086 10.5742 96.5795 10.7905V13.6978H95.69V11.0098C95.69 10.2905 95.355 9.92626 94.7271 9.92626C94.5743 9.91374 94.4207 9.93473 94.2769 9.98779C94.1332 10.0408 94.0027 10.1247 93.8947 10.2334C93.7867 10.3421 93.7038 10.4732 93.6517 10.6173C93.5997 10.7614 93.5797 10.9152 93.5933 11.0679V13.6977H92.7046L92.7046 7.43701Z" fill="white"/>
<path d="M101.761 12.4819C101.641 12.8935 101.379 13.2495 101.022 13.4876C100.666 13.7258 100.236 13.8309 99.8101 13.7847C99.5134 13.7925 99.2186 13.7357 98.9461 13.6182C98.6736 13.5006 98.43 13.3252 98.232 13.1041C98.0341 12.8829 97.8867 12.6214 97.8 12.3376C97.7133 12.0537 97.6894 11.7544 97.73 11.4605C97.6905 11.1656 97.7148 10.8656 97.8013 10.581C97.8878 10.2963 98.0344 10.0335 98.2313 9.81046C98.4282 9.58739 98.6707 9.40922 98.9424 9.28801C99.2141 9.1668 99.5087 9.10539 99.8062 9.10792C101.059 9.10792 101.815 9.96392 101.815 11.3779V11.688H98.6353V11.7378C98.6214 11.9031 98.6421 12.0694 98.6963 12.2261C98.7504 12.3829 98.8367 12.5266 98.9496 12.6481C99.0625 12.7695 99.1995 12.866 99.3519 12.9314C99.5043 12.9968 99.6687 13.0297 99.8345 13.0278C100.047 13.0533 100.262 13.0151 100.453 12.9178C100.644 12.8206 100.802 12.6689 100.906 12.4819L101.761 12.4819ZM98.6353 11.0308H100.91C100.921 10.8796 100.9 10.7278 100.849 10.5851C100.798 10.4424 100.718 10.3119 100.614 10.2021C100.509 10.0922 100.383 10.0054 100.243 9.94724C100.103 9.88906 99.9528 9.8608 99.8013 9.86427C99.6476 9.86234 99.495 9.8912 99.3527 9.94915C99.2103 10.0071 99.081 10.0929 98.9723 10.2017C98.8636 10.3104 98.7778 10.4397 98.72 10.5821C98.6621 10.7245 98.6333 10.8771 98.6353 11.0308H98.6353Z" fill="white"/>
<rect x="0.5" y="0.5" width="114" height="38" rx="6.5" stroke="#9D9D9D"/>
</svg>
