<svg width="28" height="28" viewBox="0 0 28 28" fill="none" xmlns="http://www.w3.org/2000/svg">
<path fill-rule="evenodd" clip-rule="evenodd" d="M14 5.41333C16.6288 5.41333 18.4022 6.54889 19.4133 7.49778L23.3644 3.64C20.9377 1.38444 17.78 0 14 0C8.5244 0 3.79551 3.14222 1.49329 7.71556L6.01995 11.2311C7.15551 7.85556 10.2977 5.41333 14 5.41333Z" fill="#EA4335"/>
<path fill-rule="evenodd" clip-rule="evenodd" d="M27.44 14.3111C27.44 13.16 27.3467 12.32 27.1444 11.4489H14V16.6444H21.7156C21.56 17.9356 20.72 19.88 18.8533 21.1867L23.2711 24.6089C25.9156 22.1667 27.44 18.5733 27.44 14.3111Z" fill="#4285F4"/>
<path fill-rule="evenodd" clip-rule="evenodd" d="M6.03556 16.7689C5.74 15.8978 5.56889 14.9644 5.56889 14C5.56889 13.0356 5.74 12.1022 6.02 11.2311L1.49333 7.71555C0.544444 9.61333 0 11.7444 0 14C0 16.2556 0.544444 18.3867 1.49333 20.2844L6.03556 16.7689Z" fill="#FBBC05"/>
<path fill-rule="evenodd" clip-rule="evenodd" d="M14.0001 28C17.7801 28 20.9535 26.7556 23.2713 24.6089L18.8535 21.1867C17.6713 22.0111 16.0846 22.5867 14.0001 22.5867C10.2979 22.5867 7.1557 20.1444 6.0357 16.7689L1.50903 20.2844C3.81126 24.8578 8.52459 28 14.0001 28Z" fill="#34A853"/>
</svg>
