<svg width="132" height="39" viewBox="0 0 132 39" fill="none" xmlns="http://www.w3.org/2000/svg">
<path d="M69.1183 13.2319C68.2168 13.2319 67.4568 12.9152 66.8558 12.2917C66.2598 11.6857 65.927 10.8503 65.9419 9.99745C65.9419 9.08722 66.2498 8.31665 66.8558 7.70568C67.4543 7.08223 68.2143 6.76553 69.1158 6.76553C70.0074 6.76553 70.7673 7.08223 71.3783 7.70568C71.9843 8.3366 72.2922 9.10717 72.2922 9.99745C72.2823 10.9102 71.9743 11.6807 71.3783 12.2892C70.7798 12.9176 70.0198 13.2319 69.1183 13.2319ZM42.2938 13.2319C41.4121 13.2319 40.6472 12.9201 40.0214 12.3042C39.4005 11.6907 39.0851 10.9152 39.0851 9.99994C39.0851 9.08473 39.4005 8.30917 40.0214 7.6957C40.6348 7.07974 41.3997 6.76802 42.2938 6.76802C42.7309 6.76802 43.1556 6.8553 43.5629 7.03236C43.9627 7.20443 44.2881 7.43884 44.529 7.72563L44.5886 7.79795L43.9155 8.46129L43.846 8.37899C43.466 7.92513 42.9569 7.70318 42.2839 7.70318C41.6828 7.70318 41.1588 7.91765 40.7267 8.34159C40.2921 8.76802 40.071 9.32662 40.071 10.0024C40.071 10.6782 40.2921 11.2368 40.7267 11.6633C41.1588 12.0872 41.6828 12.3017 42.2839 12.3017C42.9246 12.3017 43.4635 12.0872 43.8832 11.6633C44.1316 11.4139 44.2856 11.0648 44.3402 10.6234H42.182V9.69071H45.2666L45.279 9.7755C45.3013 9.93261 45.3237 10.0947 45.3237 10.2443C45.3237 11.1047 45.0654 11.8004 44.5538 12.3142C43.9726 12.9226 43.2127 13.2319 42.2938 13.2319ZM77.9596 13.0997H77.0084L74.0953 8.41889L74.1201 9.26179V13.0972H73.1689V6.90019H74.2542L74.284 6.94757L77.0233 11.3565L76.9985 10.5161V6.90019H77.9596V13.0997ZM61.9707 13.0997H61.0071V7.83286H59.3357V6.90019H63.6396V7.83286H61.9682V13.0997H61.9707ZM58.5509 13.0997H57.5898V6.90019H58.5509V13.0997ZM53.1493 13.0997H52.1881V7.83286H50.5167V6.90019H54.8207V7.83286H53.1493V13.0997ZM49.9083 13.0897H46.2227V6.90019H49.9083V7.83286H47.1863V9.53361H49.6425V10.4563H47.1863V12.157H49.9083V13.0897ZM67.5611 11.6508C67.9908 12.0822 68.5123 12.2992 69.1183 12.2992C69.7417 12.2992 70.2508 12.0872 70.6755 11.6508C71.0977 11.2269 71.3112 10.6708 71.3112 9.99994C71.3112 9.32912 71.0977 8.77051 70.6779 8.34907C70.2483 7.91765 69.7243 7.70069 69.1208 7.70069C68.4974 7.70069 67.9883 7.91266 67.5661 8.34907C67.1439 8.77301 66.9303 9.32912 66.9303 9.99994C66.9303 10.6708 67.1414 11.2294 67.5611 11.6508Z" fill="white"/>
<rect x="0.5" y="0.5" width="131" height="38" rx="6.5" stroke="#9D9D9D"/>
<path fill-rule="evenodd" clip-rule="evenodd" d="M65.8526 21.7556C63.5056 21.7556 61.6032 23.5436 61.6032 26.01C61.6032 28.4539 63.518 30.2643 65.8526 30.2643C68.1995 30.2643 70.1019 28.4638 70.1019 26.01C70.1019 23.5436 68.1995 21.7556 65.8526 21.7556ZM65.8526 28.5786C64.5686 28.5786 63.4634 27.5112 63.4634 26C63.4634 24.4663 64.5711 23.4214 65.8526 23.4214C67.1366 23.4214 68.2417 24.4663 68.2417 26C68.2442 27.5212 67.1366 28.5786 65.8526 28.5786ZM56.5815 21.7556C54.2346 21.7556 52.3322 23.5436 52.3322 26.01C52.3322 28.4539 54.247 30.2643 56.5815 30.2643C58.9285 30.2643 60.8309 28.4638 60.8309 26.01C60.8309 23.5436 58.926 21.7556 56.5815 21.7556ZM56.5815 28.5786C55.2975 28.5786 54.1924 27.5112 54.1924 26C54.1924 24.4663 55.3 23.4214 56.5815 23.4214C57.8655 23.4214 58.9707 24.4663 58.9707 26C58.9707 27.5212 57.8655 28.5786 56.5815 28.5786ZM45.5496 23.0549V24.8554H49.8536C49.722 25.8653 49.3892 26.611 48.8801 27.1222C48.2492 27.7556 47.2757 28.4439 45.5596 28.4439C42.9146 28.4439 40.8458 26.2992 40.8458 23.6434C40.8458 20.9875 42.9146 18.8429 45.5596 18.8429C46.9876 18.8429 48.0282 19.409 48.8006 20.1322L50.0722 18.8554C48.9993 17.8229 47.5712 17.0324 45.5695 17.0324C41.9411 17.0324 38.8962 20 38.8962 23.6334C38.8962 27.2768 41.9386 30.2344 45.5695 30.2344C47.529 30.2344 48.9993 29.591 50.1616 28.3791C51.3462 27.1895 51.7212 25.5112 51.7212 24.1571C51.7212 23.7357 51.6889 23.3566 51.6219 23.0349H45.5472C45.5496 23.0324 45.5496 23.0549 45.5496 23.0549ZM90.673 24.4564C90.3179 23.5012 89.245 21.7456 87.0446 21.7456C84.8641 21.7456 83.0511 23.4688 83.0511 26C83.0511 28.389 84.8442 30.2544 87.2557 30.2544C89.1929 30.2544 90.3204 29.0648 90.7848 28.3666L89.3468 27.399C88.87 28.1097 88.2069 28.5761 87.2656 28.5761C86.3144 28.5761 85.6488 28.1421 85.2068 27.2868L90.8717 24.9302C90.8717 24.9327 90.673 24.4564 90.673 24.4564ZM84.8963 25.8778C84.8516 24.2344 86.1679 23.399 87.1092 23.399C87.8517 23.399 88.4701 23.7656 88.6813 24.2993L84.8963 25.8778ZM80.2943 30H82.1545V17.5012H80.2943V30ZM77.2396 22.7007H77.1725C76.7528 22.1995 75.9556 21.7456 74.9373 21.7456C72.8239 21.7456 70.8768 23.6135 70.8768 26.0125C70.8768 28.4015 72.8139 30.2469 74.9373 30.2469C75.9432 30.2469 76.7528 29.7905 77.1725 29.2793H77.2396V29.8903C77.2396 31.5137 76.3753 32.389 74.9821 32.389C73.8421 32.389 73.1343 31.5661 72.8462 30.8778L71.2294 31.5561C71.6939 32.6783 72.9331 34.0673 74.9796 34.0673C77.1601 34.0673 79.0079 32.7781 79.0079 29.6334V22H77.2495V22.7007C77.252 22.7007 77.2396 22.7007 77.2396 22.7007ZM75.1037 28.5786C73.8198 28.5786 72.7469 27.5012 72.7469 26.0125C72.7469 24.5112 73.8198 23.4239 75.1037 23.4239C76.3753 23.4239 77.3613 24.5237 77.3613 26.0125C77.3737 27.5012 76.3778 28.5786 75.1037 28.5786ZM99.3828 17.5012H94.9348V30H96.795V25.2668H99.3853C101.444 25.2668 103.468 23.7681 103.468 21.389C103.468 19.01 101.452 17.5012 99.3828 17.5012ZM99.4375 23.5212H96.7925V19.2319H99.4375C100.831 19.2319 101.618 20.3865 101.618 21.3766C101.618 22.3566 100.821 23.5212 99.4375 23.5212ZM110.924 21.7332C109.573 21.7332 108.18 22.3342 107.603 23.6434L109.252 24.3317C109.608 23.6434 110.258 23.409 110.946 23.409C111.91 23.409 112.883 23.9875 112.906 25.0199V25.1521C112.573 24.9626 111.843 24.6733 110.969 24.6733C109.188 24.6733 107.382 25.6509 107.382 27.4838C107.382 29.1621 108.843 30.2394 110.469 30.2394C111.719 30.2394 112.406 29.6733 112.836 29.0175H112.903V29.985H114.696V25.197C114.696 22.9676 113.047 21.7332 110.924 21.7332ZM110.69 28.5786C110.082 28.5786 109.23 28.2793 109.23 27.5112C109.23 26.5436 110.293 26.1771 111.199 26.1771C112.019 26.1771 112.407 26.3541 112.893 26.5985C112.759 27.7207 111.815 28.5686 110.69 28.5786ZM121.238 22L119.102 27.4214H119.035L116.822 22H114.82L118.141 29.5786L116.249 33.7905H118.186L123.294 22H121.238ZM104.494 30H106.354V17.5012H104.494V30Z" fill="white"/>
<path fill-rule="evenodd" clip-rule="evenodd" d="M8.39113 7.53363C8.10304 7.84535 7.93665 8.32166 7.93665 8.9451V31.0573C7.93665 31.6808 8.10304 32.1571 8.40107 32.4563L8.47806 32.5237L20.8163 20.1346V19.8578L8.46812 7.4663L8.39113 7.53363Z" fill="url(#paint0_linear)"/>
<path fill-rule="evenodd" clip-rule="evenodd" d="M24.9214 24.2768L20.8062 20.1446V19.8554L24.9214 15.7232L25.0108 15.7781L29.8786 18.5561C31.2718 19.3441 31.2718 20.6459 29.8786 21.4439L25.0108 24.2219L24.9214 24.2768Z" fill="url(#paint1_linear)"/>
<path fill-rule="evenodd" clip-rule="evenodd" d="M25.0109 24.2219L20.8063 20L8.39111 32.4663C8.8456 32.9551 9.60805 33.01 10.4599 32.5337L25.0109 24.2219Z" fill="url(#paint2_linear)"/>
<path fill-rule="evenodd" clip-rule="evenodd" d="M25.0109 15.7781L10.4599 7.4788C9.60805 6.99002 8.84312 7.05735 8.39111 7.54613L20.8063 20L25.0109 15.7781Z" fill="url(#paint3_linear)"/>
<path opacity="0.2" fill-rule="evenodd" clip-rule="evenodd" d="M24.9216 24.1322L10.4698 32.3766C9.66264 32.8429 8.94241 32.8105 8.47799 32.3866L8.401 32.4639L8.47799 32.5312C8.94241 32.9527 9.66264 32.9876 10.4698 32.5212L25.0209 24.222L24.9216 24.1322Z" fill="black"/>
<path opacity="0.12" fill-rule="evenodd" clip-rule="evenodd" d="M29.8786 21.2993L24.9091 24.1322L24.9985 24.2219L29.8662 21.4439C30.5641 21.0449 30.9068 20.5212 30.9068 20C30.8646 20.4788 30.5094 20.9327 29.8786 21.2993Z" fill="black"/>
<path opacity="0.25" fill-rule="evenodd" clip-rule="evenodd" d="M10.4599 7.62347L29.8787 18.7008C30.5095 19.0574 30.8646 19.5237 30.9193 20C30.9193 19.4788 30.5766 18.9551 29.8787 18.5561L10.4599 7.47883C9.06665 6.67833 7.93665 7.34666 7.93665 8.94517V9.0898C7.93665 7.48881 9.06665 6.83295 10.4599 7.62347Z" fill="white"/>
<defs>
<linearGradient id="paint0_linear" x1="19.7095" y1="8.70654" x2="-0.0648614" y2="13.9538" gradientUnits="userSpaceOnUse">
<stop stop-color="#00A0FF"/>
<stop offset="0.00657" stop-color="#00A1FF"/>
<stop offset="0.2601" stop-color="#00BEFF"/>
<stop offset="0.5122" stop-color="#00D2FF"/>
<stop offset="0.7604" stop-color="#00DFFF"/>
<stop offset="1" stop-color="#00E3FF"/>
</linearGradient>
<linearGradient id="paint1_linear" x1="31.6955" y1="20" x2="7.59777" y2="20" gradientUnits="userSpaceOnUse">
<stop stop-color="#FFE000"/>
<stop offset="0.4087" stop-color="#FFBD00"/>
<stop offset="0.7754" stop-color="#FFA500"/>
<stop offset="1" stop-color="#FF9C00"/>
</linearGradient>
<linearGradient id="paint2_linear" x1="22.7246" y1="22.2973" x2="6.76185" y2="49.0538" gradientUnits="userSpaceOnUse">
<stop stop-color="#FF3A44"/>
<stop offset="1" stop-color="#C31162"/>
</linearGradient>
<linearGradient id="paint3_linear" x1="5.26483" y1="0.17879" x2="12.3865" y2="12.1287" gradientUnits="userSpaceOnUse">
<stop stop-color="#32A071"/>
<stop offset="0.0685" stop-color="#2DA771"/>
<stop offset="0.4762" stop-color="#15CF74"/>
<stop offset="0.8009" stop-color="#06E775"/>
<stop offset="1" stop-color="#00F076"/>
</linearGradient>
</defs>
</svg>
