<?xml version="1.0" encoding="utf-8"?>
<!-- Generator: Adobe Illustrator 25.4.6, SVG Export Plug-In . SVG Version: 6.00 Build 0)  -->
<svg version="1.1" id="Layer_1" xmlns:sketch="http://www.bohemiancoding.com/sketch/ns"
	 xmlns="http://www.w3.org/2000/svg" xmlns:xlink="http://www.w3.org/1999/xlink" x="0px" y="0px" viewBox="0 0 116 56"
	 style="enable-background:new 0 0 116 56;" xml:space="preserve">
<style type="text/css">
	.st0{fill-rule:evenodd;clip-rule:evenodd;fill:#4A4A4A;}
</style>
<desc>Created with Sketch.</desc>
<g id="Page-1" sketch:type="MSPage">
	<g id="_x34_04" transform="translate(-642.000000, -383.000000)" sketch:type="MSArtboardGroup">
		<g id="Fill-1-_x2B_-Group-5-_x2B_-Fill-6" transform="translate(642.000000, 383.000000)" sketch:type="MSLayerGroup">
			<path id="Fill-1" sketch:type="MSShapeGroup" class="st0" d="M60,18c-9.9,0-18,8.3-18,18.5S50.1,55,60,55c9.9,0,18-8.3,18-18.5
				S69.9,18,60,18z M60,49.2c-6.8,0-12.3-5.7-12.3-12.7S53.2,23.8,60,23.8s12.3,5.7,12.3,12.7S66.8,49.2,60,49.2z"/>
			<g id="Group-5" sketch:type="MSShapeGroup">
				<path id="Fill-3" class="st0" d="M34.8,0c-2.2,0.2-3.8,2.1-3.8,4.3l0,15.9c0,0,0,0,0,0v15.3c0,0.3,0,0.5,0,0.8
					c0,0.3,0,0.5,0,0.8c-0.4,5.9-5.3,10.6-11.3,10.6c-6,0-10.9-4.7-11.3-10.6l-0.7-1.1C6,33.3,2.1,33.3,0.6,36L0,37
					c0.4,10.5,9.1,18.9,19.7,18.9c10.9,0,19.7-8.8,19.7-19.6c0,0,0,0,0,0V4.2C39.4,1.7,37.3-0.2,34.8,0z"/>
			</g>
			<path id="Fill-6" sketch:type="MSShapeGroup" class="st0" d="M99,19.6c-5.7,0-10.7,2.8-13.8,7.2V2.6c0-0.9-0.7-1.6-1.6-1.6
				C82.7,1,82,1.7,82,2.6v34.2c0,0,0,0,0,0C82,46.3,89.6,54,99,54s17-7.7,17-17.2C116,27.3,108.4,19.6,99,19.6z M99,50.8
				c-7.6,0-13.8-6.3-13.8-14s6.2-14,13.8-14s13.8,6.3,13.8,14S106.6,50.8,99,50.8z"/>
		</g>
	</g>
</g>
</svg>
