<?xml version="1.0" encoding="utf-8"?>
<!-- Generator: Adobe Illustrator 25.4.6, SVG Export Plug-In . SVG Version: 6.00 Build 0)  -->
<svg version="1.1" id="Layer_1" xmlns="http://www.w3.org/2000/svg" xmlns:xlink="http://www.w3.org/1999/xlink" x="0px" y="0px"
	 viewBox="0 0 25 25" style="enable-background:new 0 0 25 25;" xml:space="preserve">
<style type="text/css">
	.st0{fill:#141414;}
	.st1{fill:#C9C9C9;}
</style>
<g>
	<path class="st0" d="M12.5,0C5.6,0,0,5.6,0,12.5S5.6,25,12.5,25S25,19.4,25,12.5S19.4,0,12.5,0z M12.5,23.5c-6.1,0-11-4.9-11-11
		s4.9-11,11-11s11,4.9,11,11S18.6,23.5,12.5,23.5z"/>
	<path class="st0" d="M6.4,5.4c0,0-0.1-0.1-0.1-0.1c0,0-0.1,0-0.1-0.1L6,5.2c-0.2,0-0.5,0-0.7,0.2C5.3,5.4,5.2,5.5,5.2,5.6
		c0,0.1-0.1,0.2-0.1,0.3c0,0.1,0,0.2,0.1,0.3c0,0.1,0.1,0.2,0.2,0.2c0.1,0.1,0.3,0.2,0.5,0.2c0,0,0.1,0,0.1,0c0,0,0.1,0,0.2,0
		c0,0,0.1,0,0.1-0.1c0,0,0.1-0.1,0.1-0.1c0.1-0.1,0.1-0.2,0.2-0.2c0-0.1,0-0.2,0-0.3c0-0.1,0-0.2-0.1-0.3C6.5,5.5,6.5,5.4,6.4,5.4
		L6.4,5.4z"/>
	<path class="st0" d="M6.6,18.8c0,0,0-0.1-0.1-0.1c0,0,0-0.1-0.1-0.1c0,0-0.1-0.1-0.1-0.1c0,0-0.1,0-0.1-0.1l-0.1,0
		c-0.1,0-0.3,0-0.4,0c-0.1,0-0.2,0.1-0.2,0.1c-0.1,0-0.1,0.1-0.1,0.1c0,0,0,0.1-0.1,0.1c0,0,0,0.1,0,0.1c0,0.1,0,0.1,0,0.2
		c0,0.1,0,0.2,0.1,0.3c0,0.1,0.1,0.2,0.2,0.2c0.1,0.1,0.3,0.2,0.5,0.2c0,0,0.1,0,0.1,0c0,0,0.1,0,0.2,0c0,0,0.1,0,0.1-0.1
		c0,0,0.1-0.1,0.1-0.1c0.1-0.1,0.1-0.2,0.2-0.2c0-0.1,0-0.2,0-0.3c0,0,0-0.1,0-0.2L6.6,18.8z"/>
	<path class="st0" d="M19.6,18.6c-0.3-0.3-0.8-0.3-1,0c-0.1,0.1-0.1,0.1-0.2,0.2c0,0.1-0.1,0.2-0.1,0.3c0,0.2,0.1,0.4,0.2,0.5
		c0.1,0.1,0.3,0.2,0.5,0.2c0.2,0,0.4-0.1,0.5-0.2c0.1-0.1,0.2-0.3,0.2-0.5c0-0.1,0-0.2-0.1-0.3C19.8,18.7,19.7,18.7,19.6,18.6
		L19.6,18.6z"/>
	<path class="st0" d="M18.6,5.4c-0.1,0.1-0.2,0.3-0.2,0.5c0,0.2,0.1,0.4,0.2,0.5c0.1,0.1,0.3,0.2,0.5,0.2c0.2,0,0.4-0.1,0.5-0.2
		c0.1-0.1,0.2-0.3,0.2-0.5c0-0.2-0.1-0.4-0.2-0.5C19.4,5.1,18.9,5.1,18.6,5.4L18.6,5.4z"/>
	<path class="st0" d="M12.5,4.8c0.4,0,0.7-0.3,0.7-0.7V2.8c0-0.4-0.3-0.7-0.7-0.7s-0.7,0.3-0.7,0.7v1.2C11.8,4.5,12.1,4.8,12.5,4.8z
		"/>
	<path class="st0" d="M4.1,11.8H2.8c-0.4,0-0.7,0.3-0.7,0.7s0.3,0.7,0.7,0.7h1.2c0.4,0,0.7-0.3,0.7-0.7S4.5,11.8,4.1,11.8z"/>
	<path class="st0" d="M12.5,20.2c-0.4,0-0.7,0.3-0.7,0.7v1.2c0,0.4,0.3,0.7,0.7,0.7s0.7-0.3,0.7-0.7v-1.2
		C13.2,20.5,12.9,20.2,12.5,20.2z"/>
	<path class="st0" d="M22.2,11.8h-1.2c-0.4,0-0.7,0.3-0.7,0.7s0.3,0.7,0.7,0.7h1.2c0.4,0,0.7-0.3,0.7-0.7S22.6,11.8,22.2,11.8z"/>
	<path class="st0" d="M16.8,11.8h-3.5V6.4c0-0.4-0.3-0.7-0.7-0.7s-0.7,0.3-0.7,0.7v6.1c0,0.4,0.3,0.7,0.7,0.7h4.3
		c0.4,0,0.7-0.3,0.7-0.7S17.2,11.8,16.8,11.8z"/>
</g>
<g>
	<path class="st1" d="M6.6,18.8c0,0,0-0.1-0.1-0.1c0,0,0-0.1-0.1-0.1c0,0-0.1-0.1-0.1-0.1c0,0-0.1,0-0.1-0.1l-0.1,0
		c-0.1,0-0.3,0-0.4,0c-0.1,0-0.2,0.1-0.2,0.1c-0.1,0-0.1,0.1-0.1,0.1c0,0,0,0.1-0.1,0.1c0,0,0,0.1,0,0.1c0,0.1,0,0.1,0,0.2
		c0,0.1,0,0.2,0.1,0.3c0,0.1,0.1,0.2,0.2,0.2c0.1,0.1,0.3,0.2,0.5,0.2c0,0,0.1,0,0.1,0c0,0,0.1,0,0.2,0c0,0,0.1,0,0.1-0.1
		c0,0,0.1-0.1,0.1-0.1c0.1-0.1,0.1-0.2,0.2-0.2c0-0.1,0-0.2,0-0.3c0,0,0-0.1,0-0.2L6.6,18.8z"/>
	<path class="st1" d="M4.1,11.8H2.8c-0.4,0-0.7,0.3-0.7,0.7s0.3,0.7,0.7,0.7h1.2c0.4,0,0.7-0.3,0.7-0.7S4.5,11.8,4.1,11.8z"/>
	<path class="st1" d="M12.5,20.2c-0.4,0-0.7,0.3-0.7,0.7v1.2c0,0.4,0.3,0.7,0.7,0.7s0.7-0.3,0.7-0.7v-1.2
		C13.2,20.5,12.9,20.2,12.5,20.2z"/>
	<path class="st1" d="M19.7,20.8c-1.9,1.7-4.5,2.7-7.2,2.7c-6.1,0-11-4.9-11-11c0-2.6,0.9-5,2.5-6.9l-1.1-1C1.1,6.7,0,9.5,0,12.5
		C0,19.4,5.6,25,12.5,25c3.2,0,6.1-1.2,8.3-3.2L19.7,20.8z"/>
</g>
</svg>
